<svg xmlns="http://www.w3.org/2000/svg" viewBox="-2 -2.25 104 124">
  <defs>
    <linearGradient id="m1" x1="49.7" x2="19.1" y1="35.05" y2="35.05" gradientUnits="userSpaceOnUse">
      <stop stop-color="#590989" offset="0"/>
      <stop stop-color="#FF2B8F" offset="1"/>
    </linearGradient>
    <linearGradient id="m2" x1="25.35" x2="45.82" y1="72.9" y2="26.49" gradientUnits="userSpaceOnUse">
      <stop stop-color="#FFB25B" offset="0"/>
      <stop stop-color="#8909A5" offset="1"/>
    </linearGradient>
    <linearGradient id="m3" x1="63" x2="63" y1="112.4" y2="29.1" gradientUnits="userSpaceOnUse">
      <stop stop-color="#0B56E3" offset="0"/>
      <stop stop-color="#4DE5E5" offset="1"/>
    </linearGradient>
    <linearGradient id="m4" x1="53.5" x2="91.6" y1="92.9" y2="39.3" gradientUnits="userSpaceOnUse">
      <stop stop-color="#1E76E8" offset="0"/>
      <stop stop-color="#4DE5E5" offset="1"/>
    </linearGradient>
    <linearGradient id="m5" x1="59.7" x2="59.7" y1="69.6" y2="1.3" gradientUnits="userSpaceOnUse">
      <stop stop-color="#FF73AB" offset="0"/>
      <stop stop-color="#8909A5" offset="1"/>
    </linearGradient>
    <linearGradient id="m6" x1="57.25" x2="57.25" y1="50.9" y2="1.3" gradientUnits="userSpaceOnUse">
      <stop stop-color="#BC1E81" offset="0"/>
      <stop stop-color="#C130C0" offset="1"/>
    </linearGradient>
    <linearGradient id="m7" x1="37.05" x2="37.05" y1="112.4" y2="42.8" gradientUnits="userSpaceOnUse">
      <stop stop-color="#0B88E3" offset="0"/>
      <stop stop-color="#7EFBC1" offset="1"/>
    </linearGradient>
    <linearGradient id="m8" x1="46.15" x2="46.15" y1="112.4" y2="62.2" gradientUnits="userSpaceOnUse">
      <stop stop-color="#1482DD" offset="0"/>
      <stop stop-color="#3CCBA1" offset="1"/>
    </linearGradient>
    <linearGradient id="m9" x1="55.55" x2="55.55" y1="118.8" y2="70.6" gradientUnits="userSpaceOnUse">
      <stop stop-color="#002795" offset="0"/>
      <stop stop-color="#1766BC" offset="1"/>
    </linearGradient>
  </defs>
  <path fill="url(#m1)" d="m49.9 1.2-37.1 37.1c-3.6 3.6-7.2 8.8-7.9 16.3-0.6 7.8 1.9 15.1 7.3 20.9l8.2 8.1c-1.8-2.3-5.2-5.7-5.2-11.3 0-2.9 1.2-6.1 3.7-8.4l30.8-31.9 0.2-30.8z"/>
  <path fill="url(#m2)" d="m44.9 6s1.5 6.9 0.7 14.5l-32.4 33.4c-2.5 2.4-5.1 5.8-4.5 13.5 0.2 2.2 1.2 5.5 3.5 8.1l8.2 8.1c-1.8-2.3-5-5.6-5-11.2 0-3.1 1.3-6.4 3.7-8.7l20.7-21.9c3-5.9 5.5-12.9 5.8-21.3 0.8-7.6-0.7-14.5-0.7-14.5z"/>
  <path fill="url(#m3)" d="m88.3 36.8-9.4-7.7 3.2 4.4c1.3 2 2.3 4 2.3 6.5 0 3.4-1.3 6.5-4.1 9.3l-30.6 30.6v32.5l36.9-36.9c4.9-4.9 8.6-11.3 8.6-19.2s-3.1-15.1-6.9-19.5z"/>
  <path fill="url(#m4)" d="m88.3 36.8c3.8 4.9 4.8 14.3-1.4 22.3l-33 33c-0.3 7.4 0.6 15.4 0.6 15.4l32.1-32.1c4.9-4.9 8.6-11.2 8.6-19.1s-3.1-15.1-6.9-19.5z"/>
  <path fill="url(#m5)" d="m49.7 1.3v68.3l23.7-24.2c2.8-2.7 4.1-5.9 4.1-10.2 0-4.2-1.9-8.2-4.1-10.6l-23.7-23.3z"/>
  <path fill="url(#m6)" d="m65.2 16.9-15.5-15.6v49.6c6.5-4.7 12.9-11.4 15.5-24.4 0.7-3.4 0.4-6.9 0-9.6z"/>
  <path fill="url(#m7)" d="m25.8 68.1c-2.4 2.3-3.8 5.5-3.8 9.4s1.4 7.2 3.8 9.9l23.9 25v-69.6l-23.9 25.3z"/>
  <path fill="url(#m8)" d="m35.6 87.1c0-12.2 8.5-20.4 14-24.9l0.1 50.2-14.1-14.2v-11.1z"/>
  <path fill="url(#m9)" d="m59.9 70.6c-2.8 6-6.4 15.4-6.4 26.4 0 2.9 0.4 7.9 1 10.5l-4.8 4.9v-31.4l10.2-10.4z"/>
  <path fill="url(#m9)" d="M49.7 112.4 L55.4 112.4 L52.55 118.8 Z"/>
</svg>
